<svg width="208" height="147" viewBox="0 0 208 147" fill="none" xmlns="http://www.w3.org/2000/svg">
<path opacity="0.87" d="M206.944 115.545C205.852 114.84 204.438 115.096 203.668 116.185C203.539 116.377 200.713 120.477 195.766 120.477C193.839 120.477 192.362 119.901 191.398 118.684C191.334 118.62 191.27 118.491 191.205 118.427C191.205 118.427 191.27 118.427 191.27 118.363C202.961 111.701 202.832 105.999 202.319 103.885C201.612 101.322 199.364 99.6567 196.473 99.6567C189.792 99.6567 185.36 107.088 185.36 114.007C185.36 114.904 185.424 115.737 185.552 116.57C183.176 118.299 179.514 120.477 176.302 120.477C174.439 120.477 173.026 119.901 172.127 118.812C171.806 118.427 171.549 117.979 171.356 117.531C180.285 114.968 183.69 109.266 183.047 104.718C182.662 101.771 180.413 99.6567 177.651 99.6567C171.42 99.6567 166.924 106.191 166.217 112.598C164.996 112.469 163.969 112.149 163.005 111.509C163.134 110.483 163.262 109.458 163.262 108.497C163.262 106.383 162.877 104.59 162.106 103.18C161.078 101.322 159.344 100.297 157.352 100.297C156.26 100.297 155.297 100.874 154.718 101.899C153.562 104.013 154.333 108.113 156.453 111.38C156.838 112.021 157.288 112.598 157.802 113.174C156.646 116.89 154.205 120.413 151.121 120.413C149.708 120.413 148.68 119.965 147.781 119.068C146.56 117.723 145.725 115.352 145.468 112.341C154.205 101.45 158.508 90.7518 156.067 85.6907C155.232 83.961 153.691 83 151.828 83C145.789 83 142.192 90.8158 140.779 106.896C140.715 107.857 140.65 109.074 140.65 110.355C137.438 114.712 132.107 120.413 127.353 120.413C126.004 120.413 124.976 119.965 124.334 119.004C124.27 118.94 124.206 118.812 124.141 118.748C124.206 118.748 124.27 118.684 124.334 118.62C136.089 111.06 135.897 105.358 135.319 103.308C134.676 101.066 132.621 99.5926 129.987 99.5926C123.178 99.5926 118.553 107.408 118.553 114.712C118.553 115.352 118.617 115.993 118.681 116.634C116.497 118.171 114.763 119.581 113.028 120.926C113.285 118.94 113.671 116.377 114.12 112.598C114.249 111.829 114.313 111.188 114.377 110.868C114.763 108.113 110.202 107.537 109.688 110.612C109.174 113.815 107.825 120.413 104.035 120.413C101.787 120.413 100.566 117.915 100.823 114.263C101.144 108.497 104.292 103.821 108.146 103.821C109.495 103.821 110.137 105.23 110.137 105.23C111.358 107.408 115.148 105.551 114.313 103.244C113.927 102.219 112.707 99.5926 108.275 99.5926C99.2813 99.5926 96.4548 108.69 96.0694 114.712C96.0052 115.673 96.0052 116.634 96.1337 117.595C94.8489 119.132 93.3714 120.413 91.894 120.413C90.4807 120.413 89.5814 118.812 90.0953 115.16C90.6092 111.637 90.9946 108.754 91.1874 107.088C92.2794 99.4645 82.708 99.6567 82.708 99.6567C82.708 99.6567 82.5795 95.1722 78.918 95.1722C77.0551 95.1722 75.3206 96.6456 75.3206 99.4004C75.3206 101.963 77.4405 103.244 77.4405 103.244C76.9908 107.216 75.1279 120.413 70.9525 120.413C69.0896 120.413 68.9611 118.427 69.1538 117.018C69.4108 115.096 69.732 111.765 69.8604 110.932C70.2459 108.177 65.685 107.601 65.1711 110.676C64.6572 113.879 63.3082 120.477 59.5182 120.477C57.2699 120.477 56.0493 117.659 56.2421 114.199C56.5632 108.369 59.7109 103.885 63.5652 103.885C64.9141 103.885 65.5565 105.294 65.5565 105.294C66.5843 107.472 70.5028 105.935 69.732 103.308C69.4108 102.155 68.126 99.6567 63.6936 99.6567C54.7004 99.6567 51.8739 108.754 51.4885 114.776C51.4242 115.737 51.4242 116.634 51.4885 117.466C50.2037 119.196 48.662 120.477 47.1845 120.477C45.8356 120.477 44.8078 119.773 45.0647 116.762C45.1932 115.352 46.7991 105.679 46.7349 103.949C46.5422 101.002 45.1932 99.7207 41.9171 99.7207C38.4482 99.7207 35.8787 101.515 34.7867 102.604C34.7867 102.604 36.3926 90.4314 36.7138 88.0611C37.035 85.6266 32.2814 85.5626 32.0245 88.0611C31.896 89.1501 30.6112 98.7598 29.4549 107.729C26.757 113.623 21.4252 122.592 13.524 122.592C-1.44338 122.592 5.43005 90.047 19.4981 90.047C22.7742 90.047 21.2968 95.3003 19.1127 98.4394C17.571 100.746 21.4895 103.308 23.6736 99.6567C29.7119 89.4705 24.6371 85.6907 19.8193 85.6907C-0.993715 85.6907 -8.70223 127.076 12.9459 127.076C20.0762 127.076 24.8941 123.104 27.9775 118.748C27.6563 121.182 27.4636 122.848 27.3993 123.168C27.0139 125.731 31.8317 125.539 32.0887 123.36C32.2814 122.015 32.988 116.313 33.5662 111.893C33.8873 109.394 36.9708 104.782 40.4396 104.782C41.2747 104.782 41.7886 105.615 41.7243 106.319C41.5959 107.152 40.1184 117.979 40.1826 119.581C40.4396 124.129 43.7157 125.154 46.7991 125.154C49.2402 125.154 51.2315 124.001 52.8375 122.207C53.9295 124.001 55.5997 125.154 57.9122 125.154C63.1155 125.154 64.9141 121.438 64.9141 121.438C64.9141 121.438 65.5565 125.154 70.0532 125.154C79.1749 125.154 81.2948 109.33 81.7444 104.013C82.2583 104.013 85.4702 104.205 86.0483 105.999C86.5622 107.729 84.9563 113.238 84.8278 118.94C84.7636 121.951 85.8556 125.154 90.6092 125.154C93.4999 125.154 95.8125 123.809 97.4184 122.335C98.5105 124.065 100.181 125.154 102.429 125.154C104.998 125.154 106.733 124.321 107.825 123.488C107.761 124.001 107.696 124.449 107.632 124.962V125.026C107.632 124.962 95.6198 133.611 95.6198 141.747C95.6198 144.95 97.0972 147 100.887 147C108.403 147 110.78 136.942 111.872 128.678C111.936 128.293 112 127.909 112 127.589C113.157 126.692 114.249 125.859 115.341 125.026C116.882 123.809 118.424 122.656 120.159 121.374C120.223 121.503 120.351 121.631 120.415 121.759C122.021 123.937 124.398 125.09 127.289 125.09C132.749 125.09 137.824 120.926 141.421 116.826C141.999 118.812 142.834 120.734 144.248 122.271C145.982 124.129 148.359 125.154 151.057 125.154C156.26 125.154 159.857 120.99 161.785 116.185C163.198 116.826 164.804 117.21 166.474 117.338C166.859 119.004 167.502 120.542 168.53 121.759C169.814 123.296 172.191 125.154 176.367 125.154C180.542 125.154 184.653 122.912 187.415 121.054C187.544 121.246 187.672 121.438 187.801 121.631C189.086 123.232 191.591 125.154 195.831 125.154C203.346 125.154 207.522 119.004 207.714 118.748C208.293 117.723 207.971 116.249 206.944 115.545ZM101.465 142.451C100.759 142.451 100.245 142.003 100.245 141.106C100.245 137.006 106.604 131.432 106.669 131.432C105.898 136.942 103.649 142.451 101.465 142.451ZM129.858 104.013C130.437 104.013 130.565 104.461 130.694 104.718C130.95 105.615 130.051 109.01 123.178 113.751C123.563 109.266 126.325 104.013 129.858 104.013ZM151.699 87.8048C153.691 87.8048 152.085 94.5956 145.725 104.077C147.203 91.4565 149.258 87.8048 151.699 87.8048ZM177.137 104.013C178.165 104.013 178.229 105.038 178.294 105.422C178.551 107.344 176.752 110.804 170.842 112.79C171.484 108.626 174.247 104.013 177.137 104.013ZM196.409 104.013C197.115 104.013 197.501 104.526 197.693 105.166C198.079 106.512 196.28 109.907 189.985 113.751C190.113 109.266 192.811 104.013 196.409 104.013Z" fill="white"/>
<path d="M130.204 47.5377C129.574 47.1023 128.745 47.1358 128.115 47.5712C127.485 48.0066 127.22 48.8438 127.452 49.5806C127.684 50.3174 128.347 50.8533 129.11 50.8868C129.872 50.9203 130.568 50.4849 130.867 49.7816C131.198 48.9778 130.933 48.0066 130.204 47.5377C129.408 46.9684 131.033 48.107 130.204 47.5377Z" fill="white"/>
<path d="M107.061 64.5845C107.459 64.5845 107.89 64.5845 108.288 64.551C109.116 64.5175 109.945 64.4505 110.741 64.35C111.404 64.2831 109.382 64.5175 110.741 64.35C111.57 64.2496 112.233 65.0199 112.067 65.8571C111.968 66.2255 111.703 66.5269 111.371 66.6944C111.139 66.7949 110.907 66.7949 110.675 66.8284C110.41 66.8618 110.111 66.8953 109.846 66.8953C107.658 67.0628 105.469 67.0293 103.281 66.7949C101.292 66.5604 99.3686 66.192 97.4456 65.5892C95.5889 65.0199 93.7984 64.2831 92.0743 63.3788C90.3171 62.4746 88.6924 61.4029 87.1341 60.1972C85.3437 58.8576 83.719 57.317 82.2602 55.609C80.8013 53.9344 79.5082 52.0924 78.4141 50.1835C77.2868 48.2075 76.3584 46.1311 75.6621 43.9542C74.9327 41.7438 74.4685 39.4664 74.2033 37.1556C73.938 34.8112 73.938 32.4334 74.1701 30.089C74.4022 27.7782 74.8664 25.4673 75.5958 23.2569C76.2921 21.08 77.1873 19.0036 78.3146 16.9942C79.4088 15.0182 80.735 13.1762 82.1939 11.4682C83.6527 9.79365 85.2774 8.25307 87.0346 6.87995C88.8251 5.50683 90.7481 4.30116 92.7375 3.32993C94.7931 2.32521 96.9483 1.55492 99.1697 0.985582C101.424 0.41624 103.745 0.114825 106.066 0.0143532C108.387 -0.0526283 110.741 0.114825 113.029 0.516714C115.25 0.918603 117.439 1.55492 119.561 2.39219C121.649 3.22946 123.639 4.30117 125.496 5.54032C127.352 6.77948 129.076 8.21958 130.668 9.82714C131.331 10.497 131.928 11.1668 132.359 12.0375C132.724 12.7743 132.922 13.6116 132.989 14.4154C133.088 16.0899 132.525 17.7979 131.397 19.0371C130.104 20.5107 128.148 21.3145 126.225 21.1805C125.297 21.1135 124.368 20.8456 123.539 20.3767C123.108 20.1423 122.71 19.8409 122.379 19.506C121.981 19.1376 121.616 18.7022 121.218 18.3338C119.594 16.7932 117.737 15.554 115.715 14.6163C113.626 13.6786 111.404 13.0757 109.15 12.8748C106.829 12.6738 104.475 12.8413 102.22 13.4106C100.032 13.98 97.9429 14.9177 96.0199 16.1569C94.1632 17.396 92.5054 18.9366 91.146 20.6781C89.7534 22.4531 88.6593 24.4626 87.8967 26.606C87.1341 28.7829 86.7362 31.0937 86.7362 33.4046C86.7362 35.749 87.1009 38.0598 87.8635 40.2702C88.593 42.4136 89.6871 44.3896 91.0465 46.1646C92.4059 47.9396 94.0637 49.4802 95.9204 50.7193C97.8103 51.992 99.8991 52.9297 102.121 53.4991C104.375 54.1019 106.729 54.2693 109.05 54.0684C111.305 53.8675 113.526 53.2981 115.615 52.3604C115.847 52.2599 116.046 52.1259 116.278 52.0924C116.477 52.0589 116.676 52.0589 116.875 52.1259C117.273 52.2599 117.571 52.5613 117.671 52.9632C117.77 53.3316 117.704 53.767 117.439 54.0684C117.306 54.2358 117.107 54.3363 116.908 54.4368C116.643 54.5373 116.411 54.6712 116.146 54.7717C114.024 55.6759 111.802 56.2453 109.514 56.4462C107.193 56.6807 104.839 56.5467 102.585 56.0778C102.883 56.4127 103.148 56.7811 103.414 57.1495C103.679 57.5179 103.944 57.9198 104.176 58.2882C104.209 58.3552 104.309 58.4892 104.309 58.4892C104.309 58.4892 104.342 58.4892 104.408 58.4892C104.541 58.4892 104.64 58.5227 104.773 58.5227C105.005 58.5561 105.237 58.5562 105.469 58.5896C106.431 58.6566 107.392 58.6566 108.354 58.6231C110.244 58.5227 112.134 58.2547 113.957 57.7189C115.715 57.2165 117.439 56.5132 119.063 55.6425C120.655 54.7717 122.147 53.767 123.506 52.5613C123.838 52.2599 124.169 51.9585 124.501 51.6571C124.799 51.3891 125.031 51.0542 125.396 50.8868C126.026 50.5519 126.789 50.6523 127.319 51.0877C127.883 51.5231 128.115 52.2599 127.949 52.9632C127.85 53.3316 127.684 53.633 127.419 53.8674C127.087 54.1689 126.789 54.5038 126.457 54.8052C125.131 56.0109 123.705 57.1161 122.18 58.0538C120.622 59.025 118.997 59.8288 117.273 60.4651C115.516 61.1349 113.725 61.6038 111.868 61.9052C109.979 62.2066 108.056 62.3406 106.132 62.2736C106.298 62.709 106.431 63.1444 106.563 63.5798C106.63 63.7807 106.663 63.9816 106.729 64.1826C106.729 64.2496 106.796 64.417 106.796 64.417L107.061 64.5845Z" fill="white"/>
<path d="M125.562 58.4222C123.705 59.8288 121.683 61.0344 119.561 61.9722C118.5 62.4411 117.405 62.8429 116.278 63.2113C115.715 63.3788 115.151 63.5463 114.587 63.6802C114.355 63.7472 114.09 63.7807 113.858 63.9147C113.659 64.0151 113.526 64.1826 113.427 64.3835C113.195 64.8189 113.261 65.3213 113.559 65.6897C113.891 66.125 114.388 66.192 114.886 66.0916C116.013 65.8236 117.14 65.4887 118.234 65.0868C120.423 64.3165 122.545 63.2783 124.534 62.0392C125.031 61.7378 125.529 61.4029 125.993 61.0679C126.225 60.9005 126.49 60.733 126.722 60.5656C126.921 60.3981 127.153 60.2642 127.319 60.0297C127.584 59.6613 127.584 59.1255 127.352 58.7236C127.12 58.3217 126.656 58.0873 126.225 58.1208C125.96 58.1877 125.728 58.2882 125.562 58.4222C122.147 60.9675 126.092 58.0203 125.562 58.4222Z" fill="white"/>
<path d="M129.541 54.8052C129.242 55.1401 128.911 55.475 128.579 55.8099C128.314 56.0778 128.015 56.3123 127.883 56.6807C127.684 57.384 128.148 58.1208 128.844 58.2212C129.275 58.2882 129.64 58.1208 129.938 57.8528C130.27 57.5514 130.602 57.2165 130.9 56.8816C131.165 56.6137 131.464 56.3458 131.563 55.9439C131.629 55.6424 131.596 55.2741 131.43 55.0061C131.033 54.3363 130.071 54.2358 129.541 54.8052C129.11 55.2741 130.005 54.3028 129.541 54.8052Z" fill="white"/>
<path d="M122.014 47.7721C121.252 48.5759 120.456 49.3127 119.594 49.9825C119.362 50.15 119.096 50.3509 118.864 50.5184C118.665 50.6523 118.5 50.8533 118.4 51.0877C118.201 51.5566 118.334 52.1259 118.732 52.4608C119.196 52.8627 119.793 52.8292 120.29 52.4608C120.754 52.1259 121.218 51.791 121.649 51.4561C122.047 51.1212 122.445 50.7528 122.843 50.3844C123.075 50.1835 123.274 49.949 123.506 49.7146C123.705 49.5136 123.904 49.3127 124.037 49.0448C124.236 48.5089 124.037 47.8726 123.539 47.5712C123.042 47.3032 122.412 47.3702 122.014 47.7721C120.854 49.0113 122.478 47.3032 122.014 47.7721Z" fill="white"/>
<path d="M107.193 25.6013C105.569 25.6013 103.977 26.1036 102.651 27.0749C101.358 28.0126 100.363 29.3187 99.8328 30.8258C99.2692 32.3664 99.2029 34.1079 99.667 35.7155C100.098 37.256 100.993 38.6292 102.22 39.6339C103.447 40.6721 105.005 41.3084 106.597 41.4089C108.221 41.5428 109.879 41.141 111.272 40.2702C112.631 39.4329 113.692 38.2273 114.355 36.7537C115.018 35.2466 115.217 33.5386 114.886 31.8975C114.587 30.3235 113.758 28.8499 112.631 27.7447C111.471 26.6395 109.979 25.9027 108.42 25.6347C107.989 25.6347 107.591 25.6013 107.193 25.6013Z" fill="white"/>
</svg>
