<svg width="136" height="42" viewBox="0 0 136 42" fill="none" xmlns="http://www.w3.org/2000/svg">
<path opacity="0.87" d="M135.309 21.3574C134.595 20.8949 133.671 21.0631 133.167 21.7778C133.083 21.9039 131.235 24.5946 128.001 24.5946C126.741 24.5946 125.775 24.2162 125.145 23.4174C125.103 23.3754 125.061 23.2913 125.019 23.2492C125.019 23.2492 125.061 23.2493 125.061 23.2072C132.705 18.8348 132.621 15.0931 132.285 13.7057C131.823 12.024 130.353 10.9309 128.463 10.9309C124.095 10.9309 121.197 15.8078 121.197 20.3483C121.197 20.9369 121.239 21.4835 121.323 22.03C119.769 23.1652 117.375 24.5946 115.275 24.5946C114.057 24.5946 113.132 24.2162 112.544 23.5015C112.334 23.2492 112.166 22.955 112.04 22.6607C117.879 20.979 120.105 17.2372 119.685 14.2523C119.433 12.3183 117.963 10.9309 116.157 10.9309C112.082 10.9309 109.142 15.2192 108.68 19.4234C107.882 19.3393 107.21 19.1291 106.58 18.7087C106.664 18.036 106.748 17.3634 106.748 16.7327C106.748 15.3453 106.496 14.1682 105.992 13.2432C105.32 12.024 104.186 11.3514 102.884 11.3514C102.17 11.3514 101.54 11.7297 101.162 12.4024C100.406 13.7898 100.91 16.4805 102.296 18.6246C102.548 19.045 102.842 19.4234 103.178 19.8018C102.422 22.2402 100.826 24.5526 98.81 24.5526C97.8859 24.5526 97.2139 24.2583 96.6259 23.6697C95.8278 22.7868 95.2818 21.2312 95.1138 19.2553C100.826 12.1081 103.64 5.08709 102.044 1.76576C101.498 0.630629 100.49 0 99.272 0C95.3238 0 92.9717 5.12912 92.0477 15.6817C92.0057 16.3123 91.9637 17.1111 91.9637 17.952C89.8636 20.8108 86.3775 24.5526 83.2694 24.5526C82.3873 24.5526 81.7153 24.2583 81.2953 23.6276C81.2533 23.5856 81.2113 23.5015 81.1693 23.4595C81.2113 23.4595 81.2533 23.4174 81.2953 23.3754C88.9816 18.4144 88.8556 14.6727 88.4776 13.3273C88.0576 11.8559 86.7135 10.8889 84.9914 10.8889C80.5393 10.8889 77.5152 16.018 77.5152 20.8108C77.5152 21.2312 77.5572 21.6517 77.5992 22.0721C76.1711 23.0811 75.0371 24.006 73.903 24.8889C74.071 23.5856 74.3231 21.9039 74.6171 19.4234C74.7011 18.9189 74.7431 18.4985 74.7851 18.2883C75.0371 16.4805 72.055 16.1021 71.7189 18.1201C71.3829 20.2222 70.5009 24.5526 68.0228 24.5526C66.5528 24.5526 65.7547 22.9129 65.9227 20.5165C66.1327 16.7327 68.1908 13.6637 70.7109 13.6637C71.5929 13.6637 72.013 14.5886 72.013 14.5886C72.811 16.018 75.2891 14.7988 74.7431 13.2853C74.4911 12.6126 73.693 10.8889 70.7949 10.8889C64.9147 10.8889 63.0666 16.8589 62.8146 20.8108C62.7726 21.4414 62.7726 22.0721 62.8566 22.7027C62.0166 23.7117 61.0506 24.5526 60.0845 24.5526C59.1605 24.5526 58.5725 23.5015 58.9085 21.1051C59.2445 18.7928 59.4965 16.9009 59.6225 15.8078C60.3365 10.8048 54.0783 10.9309 54.0783 10.9309C54.0783 10.9309 53.9943 7.98799 51.6002 7.98799C50.3822 7.98799 49.2481 8.95496 49.2481 10.7628C49.2481 12.4444 50.6342 13.2853 50.6342 13.2853C50.3402 15.8919 49.1221 24.5526 46.392 24.5526C45.174 24.5526 45.09 23.2493 45.216 22.3243C45.384 21.0631 45.594 18.8769 45.678 18.3303C45.93 16.5225 42.9479 16.1441 42.6119 18.1622C42.2759 20.2643 41.3938 24.5946 38.9157 24.5946C37.4457 24.5946 36.6476 22.7448 36.7737 20.4745C36.9837 16.6487 39.0417 13.7057 41.5618 13.7057C42.4439 13.7057 42.8639 14.6306 42.8639 14.6306C43.5359 16.0601 46.098 15.0511 45.594 13.3273C45.384 12.5706 44.5439 10.9309 41.6458 10.9309C35.7656 10.9309 33.9175 16.9009 33.6655 20.8529C33.6235 21.4835 33.6235 22.0721 33.6655 22.6186C32.8255 23.7537 31.8175 24.5946 30.8514 24.5946C29.9694 24.5946 29.2974 24.1321 29.4654 22.1562C29.5494 21.2312 30.5994 14.8829 30.5574 13.7478C30.4314 11.8138 29.5494 10.973 27.4073 10.973C25.1392 10.973 23.4592 12.1502 22.7451 12.8649C22.7451 12.8649 23.7952 4.87687 24.0052 3.32132C24.2152 1.72372 21.1071 1.68168 20.9391 3.32132C20.8551 4.03603 20.015 10.3423 19.259 16.2282C17.4949 20.0961 14.0088 25.982 8.84262 25.982C-0.943748 25.982 3.55042 4.62462 12.7488 4.62462C14.8908 4.62462 13.9248 8.07207 12.4968 10.1321C11.4887 11.6456 14.0508 13.3273 15.4789 10.9309C19.427 4.24625 16.1089 1.76576 12.9588 1.76576C-0.649736 1.76576 -5.68992 28.9249 8.4646 28.9249C13.1268 28.9249 16.2769 26.3183 18.293 23.4595C18.083 25.0571 17.957 26.1502 17.915 26.3604C17.6629 28.042 20.8131 27.9159 20.9811 26.4865C21.1071 25.6036 21.5691 21.8619 21.9471 18.961C22.1571 17.3213 24.1732 14.2943 26.4413 14.2943C26.9873 14.2943 27.3233 14.8408 27.2813 15.3033C27.1973 15.8498 26.2313 22.955 26.2733 24.006C26.4413 26.991 28.5833 27.6637 30.5994 27.6637C32.1955 27.6637 33.4975 26.9069 34.5476 25.7297C35.2616 26.9069 36.3536 27.6637 37.8657 27.6637C41.2678 27.6637 42.4439 25.2252 42.4439 25.2252C42.4439 25.2252 42.8639 27.6637 45.804 27.6637C51.7682 27.6637 53.1543 17.2793 53.4483 13.7898C53.7843 13.7898 55.8844 13.9159 56.2624 15.0931C56.5984 16.2282 55.5483 19.8438 55.4643 23.5856C55.4223 25.5616 56.1364 27.6637 59.2445 27.6637C61.1346 27.6637 62.6466 26.7808 63.6967 25.8138C64.4107 26.9489 65.5027 27.6637 66.9728 27.6637C68.6528 27.6637 69.7869 27.1171 70.5009 26.5706C70.4589 26.9069 70.4169 27.2012 70.3749 27.5375V27.5796C70.3749 27.5375 62.5206 33.2132 62.5206 38.5526C62.5206 40.6547 63.4866 42 65.9647 42C70.8789 42 72.433 35.3994 73.147 29.976C73.189 29.7237 73.231 29.4715 73.231 29.2613C73.987 28.6727 74.7011 28.1261 75.4151 27.5796C76.4231 26.7808 77.4312 26.024 78.5652 25.1832C78.6072 25.2673 78.6912 25.3514 78.7332 25.4354C79.7832 26.8649 81.3373 27.6216 83.2274 27.6216C86.7975 27.6216 90.1156 24.8889 92.4677 22.1982C92.8457 23.5015 93.3918 24.7628 94.3158 25.7718C95.4498 26.991 97.0039 27.6637 98.768 27.6637C102.17 27.6637 104.522 24.9309 105.782 21.7778C106.706 22.1982 107.756 22.4505 108.848 22.5345C109.1 23.6276 109.52 24.6366 110.192 25.4354C111.032 26.4444 112.586 27.6637 115.317 27.6637C118.047 27.6637 120.735 26.1922 122.541 24.973C122.625 25.0991 122.709 25.2252 122.793 25.3513C123.633 26.4024 125.271 27.6637 128.043 27.6637C132.957 27.6637 135.687 23.6276 135.813 23.4595C136.191 22.7868 135.981 21.8198 135.309 21.3574ZM66.3428 39.015C65.8807 39.015 65.5447 38.7207 65.5447 38.1321C65.5447 35.4414 69.7029 31.7838 69.7449 31.7838C69.2409 35.3994 67.7708 39.015 66.3428 39.015ZM84.9074 13.7898C85.2855 13.7898 85.3695 14.0841 85.4535 14.2523C85.6215 14.8408 85.0334 17.0691 80.5393 20.1802C80.7913 17.2372 82.5974 13.7898 84.9074 13.7898ZM99.188 3.15315C100.49 3.15315 99.44 7.60961 95.2818 13.8318C96.2479 5.54955 97.5919 3.15315 99.188 3.15315ZM115.821 13.7898C116.493 13.7898 116.535 14.4625 116.577 14.7147C116.745 15.976 115.569 18.2462 111.704 19.5496C112.124 16.8168 113.931 13.7898 115.821 13.7898ZM128.421 13.7898C128.883 13.7898 129.135 14.1261 129.261 14.5465C129.513 15.4294 128.337 17.6577 124.221 20.1802C124.305 17.2372 126.069 13.7898 128.421 13.7898Z" fill="black"/>
</svg>
