<svg width="14" height="12" viewBox="0 0 14 12" fill="none" xmlns="http://www.w3.org/2000/svg">
<path d="M13.5605 1.02349L7.41957 11.6541C7.36006 11.7591 7.27376 11.8464 7.16947 11.9072C7.06519 11.968 6.94665 12 6.82595 12C6.70525 12 6.58671 11.968 6.48243 11.9072C6.37814 11.8464 6.29184 11.7591 6.23233 11.6541L0.0914141 1.02349C0.0315277 0.919768 0 0.802105 0 0.682332C0 0.562559 0.0315277 0.444897 0.0914141 0.34117C0.15153 0.237045 0.238092 0.150653 0.342336 0.0907425C0.44658 0.0308322 0.564803 -0.000468515 0.685036 8.78465e-06H12.9669C13.0871 -0.000468515 13.2053 0.0308322 13.3096 0.0907425C13.4138 0.150653 13.5004 0.237045 13.5605 0.34117C13.6204 0.444897 13.6519 0.562559 13.6519 0.682332C13.6519 0.802105 13.6204 0.919768 13.5605 1.02349ZM1.86546 1.36465L6.82595 9.94829L11.7864 1.36465H1.86546Z" fill="#7B7A85"/>
</svg>
