<svg width="15" height="17" viewBox="0 0 15 17" fill="none" xmlns="http://www.w3.org/2000/svg">
<path d="M5.83333 13.3333C6.05435 13.3333 6.26631 13.2455 6.42259 13.0893C6.57887 12.933 6.66667 12.721 6.66667 12.5V7.5C6.66667 7.27899 6.57887 7.06703 6.42259 6.91074C6.26631 6.75446 6.05435 6.66667 5.83333 6.66667C5.61232 6.66667 5.40036 6.75446 5.24408 6.91074C5.0878 7.06703 5 7.27899 5 7.5V12.5C5 12.721 5.0878 12.933 5.24408 13.0893C5.40036 13.2455 5.61232 13.3333 5.83333 13.3333ZM14.1667 3.33333H10.8333V2.5C10.8333 1.83696 10.5699 1.20107 10.1011 0.732233C9.63226 0.263392 8.99637 0 8.33333 0H6.66667C6.00363 0 5.36774 0.263392 4.8989 0.732233C4.43006 1.20107 4.16667 1.83696 4.16667 2.5V3.33333H0.833333C0.61232 3.33333 0.400358 3.42113 0.244078 3.57741C0.0877973 3.73369 0 3.94565 0 4.16667C0 4.38768 0.0877973 4.59964 0.244078 4.75592C0.400358 4.9122 0.61232 5 0.833333 5H1.66667V14.1667C1.66667 14.8297 1.93006 15.4656 2.3989 15.9344C2.86774 16.4033 3.50363 16.6667 4.16667 16.6667H10.8333C11.4964 16.6667 12.1323 16.4033 12.6011 15.9344C13.0699 15.4656 13.3333 14.8297 13.3333 14.1667V5H14.1667C14.3877 5 14.5996 4.9122 14.7559 4.75592C14.9122 4.59964 15 4.38768 15 4.16667C15 3.94565 14.9122 3.73369 14.7559 3.57741C14.5996 3.42113 14.3877 3.33333 14.1667 3.33333ZM5.83333 2.5C5.83333 2.27899 5.92113 2.06702 6.07741 1.91074C6.23369 1.75446 6.44565 1.66667 6.66667 1.66667H8.33333C8.55435 1.66667 8.76631 1.75446 8.92259 1.91074C9.07887 2.06702 9.16667 2.27899 9.16667 2.5V3.33333H5.83333V2.5ZM11.6667 14.1667C11.6667 14.3877 11.5789 14.5996 11.4226 14.7559C11.2663 14.9122 11.0543 15 10.8333 15H4.16667C3.94565 15 3.73369 14.9122 3.57741 14.7559C3.42113 14.5996 3.33333 14.3877 3.33333 14.1667V5H11.6667V14.1667ZM9.16667 13.3333C9.38768 13.3333 9.59964 13.2455 9.75592 13.0893C9.9122 12.933 10 12.721 10 12.5V7.5C10 7.27899 9.9122 7.06703 9.75592 6.91074C9.59964 6.75446 9.38768 6.66667 9.16667 6.66667C8.94565 6.66667 8.73369 6.75446 8.57741 6.91074C8.42113 7.06703 8.33333 7.27899 8.33333 7.5V12.5C8.33333 12.721 8.42113 12.933 8.57741 13.0893C8.73369 13.2455 8.94565 13.3333 9.16667 13.3333Z" fill="#75839D"/>
</svg>
